<mxfile host="app.diagrams.net" modified="2024-01-10T17:03:47.140Z" agent="Mozilla/5.0 (Windows NT 10.0; Win64; x64) AppleWebKit/537.36 (KHTML, like Gecko) Chrome/120.0.0.0 Safari/537.36" etag="VmC-E0AEFD43yWhP-vT2" version="22.1.18" type="github">
  <diagram name="Page-1" id="8Wz5gM3MXV_MsVQlrzzW">
    <mxGraphModel dx="724" dy="442" grid="1" gridSize="10" guides="1" tooltips="1" connect="1" arrows="1" fold="1" page="1" pageScale="1" pageWidth="850" pageHeight="1100" math="0" shadow="0">
      <root>
        <mxCell id="0" />
        <mxCell id="1" parent="0" />
        <mxCell id="sT84I091obNNUdixPBFi-1" value="" style="outlineConnect=0;dashed=0;verticalLabelPosition=bottom;verticalAlign=top;align=center;html=1;shape=mxgraph.aws3.ec2;fillColor=#F58534;gradientColor=none;" vertex="1" parent="1">
          <mxGeometry x="355" y="210" width="76.5" height="93" as="geometry" />
        </mxCell>
        <mxCell id="sT84I091obNNUdixPBFi-2" value="VPC" style="sketch=0;outlineConnect=0;gradientColor=none;html=1;whiteSpace=wrap;fontSize=12;fontStyle=0;shape=mxgraph.aws4.group;grIcon=mxgraph.aws4.group_vpc;strokeColor=#879196;fillColor=none;verticalAlign=top;align=left;spacingLeft=30;fontColor=#879196;dashed=0;" vertex="1" parent="1">
          <mxGeometry x="280" y="140" width="540" height="460" as="geometry" />
        </mxCell>
        <mxCell id="sT84I091obNNUdixPBFi-3" value="" style="sketch=0;outlineConnect=0;fontColor=#232F3E;gradientColor=none;fillColor=#C925D1;strokeColor=none;dashed=0;verticalLabelPosition=bottom;verticalAlign=top;align=center;html=1;fontSize=12;fontStyle=0;aspect=fixed;pointerEvents=1;shape=mxgraph.aws4.rds_instance;" vertex="1" parent="1">
          <mxGeometry x="355" y="430" width="78" height="78" as="geometry" />
        </mxCell>
        <mxCell id="sT84I091obNNUdixPBFi-4" value="Amazon S3" style="sketch=0;outlineConnect=0;fontColor=#232F3E;gradientColor=none;strokeColor=#ffffff;fillColor=#232F3E;dashed=0;verticalLabelPosition=middle;verticalAlign=bottom;align=center;html=1;whiteSpace=wrap;fontSize=10;fontStyle=1;spacing=3;shape=mxgraph.aws4.productIcon;prIcon=mxgraph.aws4.s3;" vertex="1" parent="1">
          <mxGeometry x="655" y="419" width="80" height="100" as="geometry" />
        </mxCell>
        <mxCell id="sT84I091obNNUdixPBFi-5" value="" style="fontColor=#0066CC;verticalAlign=top;verticalLabelPosition=bottom;labelPosition=center;align=center;html=1;outlineConnect=0;fillColor=#CCCCCC;strokeColor=#6881B3;gradientColor=none;gradientDirection=north;strokeWidth=2;shape=mxgraph.networks.pc;" vertex="1" parent="1">
          <mxGeometry x="20" y="293" width="100" height="70" as="geometry" />
        </mxCell>
        <mxCell id="sT84I091obNNUdixPBFi-6" value="Jenkins" style="whiteSpace=wrap;html=1;aspect=fixed;" vertex="1" parent="1">
          <mxGeometry x="40" y="140" width="80" height="80" as="geometry" />
        </mxCell>
        <mxCell id="sT84I091obNNUdixPBFi-14" value="" style="endArrow=classic;html=1;rounded=0;exitX=0.988;exitY=0.6;exitDx=0;exitDy=0;exitPerimeter=0;" edge="1" parent="1" source="sT84I091obNNUdixPBFi-6" target="sT84I091obNNUdixPBFi-2">
          <mxGeometry width="50" height="50" relative="1" as="geometry">
            <mxPoint x="140" y="205" as="sourcePoint" />
            <mxPoint x="190" y="155" as="targetPoint" />
          </mxGeometry>
        </mxCell>
        <mxCell id="sT84I091obNNUdixPBFi-18" value="Contains two pipelines" style="text;html=1;strokeColor=none;fillColor=none;align=center;verticalAlign=middle;whiteSpace=wrap;rounded=0;" vertex="1" parent="1">
          <mxGeometry x="130" y="241.5" width="60" height="30" as="geometry" />
        </mxCell>
        <mxCell id="sT84I091obNNUdixPBFi-19" value="Localhost&lt;br&gt;" style="text;html=1;strokeColor=none;fillColor=none;align=center;verticalAlign=middle;whiteSpace=wrap;rounded=0;" vertex="1" parent="1">
          <mxGeometry x="50" y="400" width="60" height="30" as="geometry" />
        </mxCell>
        <mxCell id="sT84I091obNNUdixPBFi-20" value="Pipeline1: Creates EC2 Instance" style="text;html=1;strokeColor=none;fillColor=none;align=center;verticalAlign=middle;whiteSpace=wrap;rounded=0;" vertex="1" parent="1">
          <mxGeometry x="340" y="333" width="136" height="30" as="geometry" />
        </mxCell>
        <mxCell id="sT84I091obNNUdixPBFi-21" value="" style="image;sketch=0;aspect=fixed;html=1;points=[];align=center;fontSize=12;image=img/lib/mscae/Docker.svg;" vertex="1" parent="1">
          <mxGeometry x="600" y="271.5" width="50" height="41" as="geometry" />
        </mxCell>
        <mxCell id="sT84I091obNNUdixPBFi-22" value="" style="verticalLabelPosition=bottom;html=1;verticalAlign=top;align=center;strokeColor=none;fillColor=#00BEF2;shape=mxgraph.azure.git_repository;" vertex="1" parent="1">
          <mxGeometry x="600" y="191.5" width="50" height="50" as="geometry" />
        </mxCell>
        <mxCell id="sT84I091obNNUdixPBFi-23" value="Pipeline1: Clones Repo in EC2" style="text;html=1;strokeColor=none;fillColor=none;align=center;verticalAlign=middle;whiteSpace=wrap;rounded=0;" vertex="1" parent="1">
          <mxGeometry x="480" y="220" width="100" height="30" as="geometry" />
        </mxCell>
        <mxCell id="sT84I091obNNUdixPBFi-24" value="Pipeline1: Deploy Django App in EC2" style="text;html=1;strokeColor=none;fillColor=none;align=center;verticalAlign=middle;whiteSpace=wrap;rounded=0;" vertex="1" parent="1">
          <mxGeometry x="490" y="277" width="90" height="30" as="geometry" />
        </mxCell>
        <mxCell id="sT84I091obNNUdixPBFi-25" value="PostgreSQL is connected with Django webapp" style="text;html=1;strokeColor=none;fillColor=none;align=center;verticalAlign=middle;whiteSpace=wrap;rounded=0;" vertex="1" parent="1">
          <mxGeometry x="334" y="530" width="120" height="30" as="geometry" />
        </mxCell>
        <mxCell id="sT84I091obNNUdixPBFi-26" value="Movies are in S3 Bucket" style="text;html=1;strokeColor=none;fillColor=none;align=center;verticalAlign=middle;whiteSpace=wrap;rounded=0;" vertex="1" parent="1">
          <mxGeometry x="640" y="530" width="150" height="30" as="geometry" />
        </mxCell>
      </root>
    </mxGraphModel>
  </diagram>
</mxfile>
